<?xml version="1.0" standalone="no"?>
<!DOCTYPE svg PUBLIC "-//W3C//DTD SVG 20010904//EN"
 "http://www.w3.org/TR/2001/REC-SVG-20010904/DTD/svg10.dtd">
<svg version="1.0" xmlns="http://www.w3.org/2000/svg"
 width="984.000000pt" height="984.000000pt" viewBox="0 0 984.000000 984.000000"
 preserveAspectRatio="xMidYMid meet">
<metadata>
Created by potrace 1.14, written by Peter Selinger 2001-2017
</metadata>
<g transform="translate(0.000000,984.000000) scale(0.100000,-0.100000)"
fill="#000000" stroke="none">
<path d="M7085 9821 c-169 -48 -253 -108 -515 -365 -238 -234 -318 -307 -463
-420 -337 -262 -657 -444 -1062 -606 -181 -72 -381 -137 -797 -260 -560 -164
-792 -247 -1032 -367 -438 -218 -798 -551 -1076 -995 -199 -317 -437 -883
-585 -1393 -21 -71 -44 -139 -52 -151 -39 -60 -153 -631 -202 -1014 -68 -525
-70 -1145 -5 -1590 82 -565 265 -1064 504 -1380 31 -41 69 -95 85 -120 79
-126 241 -326 365 -450 369 -370 792 -590 1306 -681 152 -26 492 -37 654 -20
805 84 1606 494 2340 1198 109 104 131 121 168 127 49 7 34 -10 287 336 253
347 355 489 601 834 l227 318 260 602 259 601 34 190 c18 105 40 226 49 270 8
44 19 121 24 170 6 50 19 144 31 209 30 176 67 473 87 711 22 262 26 1115 5
1370 -45 562 -109 976 -219 1410 -214 849 -551 1365 -959 1469 -83 21 -241 20
-319 -3z m255 -515 c304 -201 586 -1010 700 -2011 67 -594 72 -1273 14 -1860
-23 -231 -86 -660 -99 -673 -2 -3 -744 -292 -1647 -644 -2304 -896 -2259 -878
-2297 -901 -18 -11 -46 -41 -62 -66 l-29 -45 0 35 c0 18 -8 46 -18 60 -9 15
-424 451 -922 969 -498 519 -918 958 -934 978 -29 34 -29 35 -16 86 7 28 45
150 85 271 337 1020 712 1537 1343 1854 184 92 421 175 902 316 400 117 555
166 755 240 539 201 963 442 1390 792 144 118 381 339 474 442 160 178 262
222 361 157z m-3323 -6592 c93 -71 87 -213 -11 -273 -40 -25 -123 -28 -166 -6
-65 34 -100 118 -80 191 14 47 62 100 106 114 45 14 113 3 151 -26z m-34 -668
c125 -52 135 -236 16 -297 -70 -35 -165 -18 -209 39 -105 132 38 323 193 258z
m23 -752 c28 -12 173 -11 944 2 501 8 920 14 931 12 36 -6 -301 -252 -521
-381 -1049 -612 -2063 -557 -2764 152 -50 50 -88 92 -85 95 2 2 76 9 164 15
88 6 219 16 290 21 72 6 256 19 410 30 433 31 433 31 468 54 18 12 41 36 52
53 l20 31 29 -35 c16 -20 44 -42 62 -49z"/>
<path d="M3795 6312 c-108 -38 -194 -121 -236 -232 -31 -83 -25 -213 15 -295
38 -76 105 -143 180 -180 110 -54 262 -45 367 21 146 91 216 280 162 440 -38
115 -139 217 -247 249 -67 20 -179 19 -241 -3z"/>
<path d="M5889 6316 c-111 -43 -190 -113 -236 -211 -24 -52 -28 -72 -28 -155
0 -82 4 -103 27 -153 38 -80 115 -158 191 -193 55 -26 73 -29 162 -29 88 0
107 3 157 27 151 70 247 249 219 406 -24 130 -104 236 -221 291 -45 21 -72 26
-145 28 -57 2 -103 -2 -126 -11z"/>
</g>
</svg>
