<svg id="レイヤー_1" data-name="レイヤー 1" xmlns="http://www.w3.org/2000/svg" viewBox="0 0 367.59 492.23"><defs><style>.cls-1,.cls-3{fill:#fff;}.cls-1{stroke:#ff9b17;stroke-miterlimit:10;stroke-width:25px;}.cls-2{fill:#333;}</style></defs><path class="cls-1" d="M408,314.84C356.88,438.53,250,511.76,169.32,478.39S64.7,317.7,115.86,194,255.41,136.93,354.58,30.44C414.08-33.45,459.2,191.14,408,314.84Z" transform="translate(-75.21 -6.73)"/><circle class="cls-2" cx="133.5" cy="194.58" r="18.9"/><circle class="cls-2" cx="237.68" cy="194.58" r="18.9"/><path class="cls-2" d="M107.66,234.35l98.8,103a8.11,8.11,0,0,1,2.25,5.6v84.2a8.09,8.09,0,0,1-7.52,8.08l-81.85,5.86c-1.64.12-9.58,1.1-10.81,0-14.19-12.48-52.82-76.59-21.2-203.88C88.82,231.25,103.38,229.88,107.66,234.35Z" transform="translate(-75.21 -6.73)"/><path class="cls-2" d="M435.53,267.15l-5.22,29.77c-.11.77.34-.7,0,0l-26.23,61c-.18.38.25-.34,0,0L351.6,430.64c-2,2.44-12.47,1.91-14.73,1.94l-120.85,2a7.19,7.19,0,0,1-7.31-7.2V347.2a11,11,0,0,1,7-10.2l203.51-79.18C424.29,255.84,436.24,261.73,435.53,267.15Z" transform="translate(-75.21 -6.73)"/><circle class="cls-3" cx="133.5" cy="363.06" r="8.62"/><circle class="cls-3" cx="133.5" cy="397.53" r="8.62"/></svg>